<svg width="472" height="89" viewBox="0 0 472 89" fill="none" xmlns="http://www.w3.org/2000/svg">
<path d="M218.5 65C206 67.0833 204.5 52.5 203.5 44.5L199 50.5L202 64L212 70C216.167 68 223.3 64.2 218.5 65Z" fill="#42C1CA"/>
<path d="M109 66C105.4 66.8 100.833 61 99 58L94 62.5L100 68L109 66Z" fill="#42C1CA"/>
<path d="M363.5 66.5C357.5 67.5 343.5 58 345 52.5L342 55L343 64L360 69C363.167 68.3333 368.251 65.7081 363.5 66.5Z" fill="#42C1CA"/>
<path d="M391.5 61.5L383 39.5H377L390 66.5L391.5 61.5Z" fill="#42C1CA"/>
<path d="M148.5 61.5L140.5 47L138 49L146 64L148.5 61.5Z" fill="#42C1CA"/>
<path d="M441.5 57.5H414.5C415.333 57.8333 414.5 58 419 58.5C423.804 59.0337 437 59.5 441.5 57.5Z" fill="#1E1E1E" fill-opacity="0.1"/>
<path d="M451.099 76.9431C454.336 71.2029 457.348 43.5245 456 27.5C456.333 27.5 451.1 23.8 451.5 23C451.9 22.2 456 26 458 28L460.5 44.5L466 49C465.667 49.8333 464.4 51.8 462 53C459.6 54.2 457.667 68.1667 457 75C455.222 75.5413 452.812 76.3121 451.099 76.9431C450.733 77.591 450.365 77.9594 450 78C448.07 78.2144 449.119 77.6721 451.099 76.9431Z" fill="#1E1E1E" fill-opacity="0.1"/>
<path d="M2.4929 50.3857V47.4134C5.16158 47.4134 7.02326 46.854 8.07795 45.7354C9.14861 44.6168 9.68395 42.7472 9.68395 40.1264V32.456C9.68395 30.2507 9.89169 28.3411 10.3072 26.7271C10.7386 25.1131 11.4338 23.7788 12.3926 22.7241C13.3514 21.6694 14.6298 20.8864 16.2278 20.375C17.8258 19.8636 19.7994 19.608 22.1484 19.608V24.3061C20.2947 24.3061 18.8326 24.5937 17.7619 25.169C16.7072 25.7443 15.9561 26.6392 15.5087 27.8537C15.0772 29.0522 14.8615 30.5863 14.8615 32.456V42.044C14.8615 43.2905 14.6937 44.4251 14.3581 45.4478C14.0385 46.4705 13.4393 47.3494 12.5604 48.0845C11.6815 48.8196 10.427 49.3869 8.79705 49.7864C7.18306 50.1859 5.08168 50.3857 2.4929 50.3857ZM22.1484 80.9716C19.7994 80.9716 17.8258 80.7159 16.2278 80.2045C14.6298 79.6932 13.3514 78.9102 12.3926 77.8555C11.4338 76.8008 10.7386 75.4664 10.3072 73.8525C9.89169 72.2385 9.68395 70.3288 9.68395 68.1236V60.4531C9.68395 57.8324 9.14861 55.9627 8.07795 54.8441C7.02326 53.7255 5.16158 53.1662 2.4929 53.1662V50.1939C5.08168 50.1939 7.18306 50.3936 8.79705 50.7931C10.427 51.1926 11.6815 51.7599 12.5604 52.495C13.4393 53.2301 14.0385 54.109 14.3581 55.1317C14.6937 56.1545 14.8615 57.2891 14.8615 58.5355V68.1236C14.8615 69.9933 15.0772 71.5273 15.5087 72.7259C15.9561 73.9244 16.7072 74.8113 17.7619 75.3865C18.8326 75.9778 20.2947 76.2734 22.1484 76.2734V80.9716ZM2.4929 53.1662V47.4134H8.14986V53.1662H2.4929ZM414.393 43.8748V38.4695H441.881V43.8748H414.393ZM414.393 57.5857V52.1804H441.881V57.5857H414.393Z" fill="#42C1CA"/>
<path d="M27.5537 71V66.8472L32.926 65.9243V28.1204L27.5537 27.1975V23.0117H32.926H41.5942L57.052 59.4314H57.2498L72.2131 23.0117H86.6821V27.1975L81.3098 28.1204V65.9243L86.6821 66.8472V71H69.4446V66.8472L75.1135 65.9243V52.0156V31.8777L74.9487 31.8447L59.3591 69.2861H55.0415L38.9246 31.9106L38.7598 31.9436L38.9905 52.0156V65.9243L44.7913 66.8472V71H27.5537ZM103.755 71.6921C100.042 71.6921 97.218 70.7913 95.2844 68.9895C93.3508 67.1658 92.384 64.606 92.384 61.3101C92.384 59.0469 92.9993 57.0803 94.2297 55.4104C95.4822 53.7185 97.2839 52.4111 99.635 51.4883C101.986 50.5435 104.799 50.071 108.073 50.071H114.434V46.5774C114.434 44.4241 113.774 42.7542 112.456 41.5676C111.16 40.3811 109.325 39.7878 106.952 39.7878C105.458 39.7878 104.161 39.9746 103.063 40.3481C101.964 40.6997 100.964 41.1941 100.063 41.8313L99.3713 46.8081H94.3616V38.6343C95.9656 37.3379 97.8333 36.3601 99.9646 35.7009C102.096 35.0198 104.458 34.6792 107.051 34.6792C111.379 34.6792 114.774 35.7119 117.235 37.7773C119.696 39.8428 120.927 42.7981 120.927 46.6433V63.8149C120.927 64.2764 120.927 64.7268 120.927 65.1663C120.948 65.6057 120.981 66.0452 121.025 66.4846L124.486 66.8472V71H115.159C114.961 70.0332 114.807 69.1653 114.697 68.3962C114.587 67.6272 114.51 66.8582 114.467 66.0891C113.214 67.6931 111.643 69.0334 109.753 70.1101C107.886 71.1648 105.886 71.6921 103.755 71.6921ZM104.711 66.2539C106.864 66.2539 108.831 65.7375 110.61 64.7048C112.39 63.6721 113.665 62.4307 114.434 60.9805V54.5205H107.842C104.854 54.5205 102.612 55.2346 101.118 56.6628C99.624 58.0911 98.877 59.6841 98.877 61.4419C98.877 63.002 99.3604 64.1995 100.327 65.0344C101.294 65.8474 102.755 66.2539 104.711 66.2539ZM136.747 85.4031C136.241 85.4031 135.582 85.3372 134.769 85.2053C133.956 85.0955 133.33 84.9856 132.891 84.8757L133.55 79.7671C133.923 79.811 134.44 79.844 135.099 79.866C135.758 79.9099 136.208 79.9319 136.45 79.9319C137.834 79.9319 138.955 79.4045 139.812 78.3499C140.691 77.2952 141.504 75.856 142.251 74.0322L143.8 70.2749L131.177 40.0515L127.354 39.5242V35.3384H142.317V39.5242L137.999 40.1833L144.954 58.0142L146.635 62.6614H146.832L155.072 40.1833L150.524 39.5242V35.3384H165.19V39.5242L161.499 40.0515L147.458 76.4712C146.799 78.1851 145.997 79.7122 145.052 81.0525C144.13 82.4148 142.987 83.4805 141.625 84.2495C140.284 85.0186 138.658 85.4031 136.747 85.4031ZM168.223 71V66.8472L173.595 65.9243V40.447L168.223 39.5242V35.3384H179.396L179.956 39.8867L180.022 40.5129C181.033 38.6892 182.274 37.261 183.746 36.2283C185.24 35.1956 186.943 34.6792 188.855 34.6792C189.536 34.6792 190.228 34.7451 190.931 34.877C191.656 34.9868 192.173 35.0967 192.48 35.2065L191.624 41.238L187.108 40.9744C185.394 40.8645 183.955 41.26 182.791 42.1609C181.626 43.0398 180.725 44.2263 180.088 45.7205V65.9243L185.46 66.8472V71H168.223ZM211.893 71.6921C208.597 71.6921 205.752 70.9231 203.357 69.385C200.984 67.825 199.149 65.6826 197.853 62.958C196.556 60.2114 195.908 57.0803 195.908 53.5647V52.8396C195.908 49.324 196.556 46.2039 197.853 43.4792C199.149 40.7327 200.984 38.5793 203.357 37.0193C205.752 35.4592 208.575 34.6792 211.827 34.6792C215.123 34.6792 217.958 35.4592 220.331 37.0193C222.726 38.5793 224.572 40.7217 225.868 43.4463C227.164 46.1709 227.812 49.302 227.812 52.8396V53.5647C227.812 57.1023 227.164 60.2444 225.868 62.991C224.572 65.7156 222.737 67.8469 220.364 69.385C217.991 70.9231 215.167 71.6921 211.893 71.6921ZM211.893 66.6165C213.959 66.6165 215.684 66.0562 217.068 64.9355C218.474 63.793 219.529 62.2439 220.232 60.2883C220.957 58.3108 221.32 56.0696 221.32 53.5647V52.8396C221.32 50.3347 220.957 48.1045 220.232 46.1489C219.529 44.1714 218.474 42.6223 217.068 41.5017C215.662 40.3591 213.915 39.7878 211.827 39.7878C209.762 39.7878 208.026 40.3591 206.62 41.5017C205.214 42.6223 204.159 44.1714 203.456 46.1489C202.753 48.1045 202.401 50.3347 202.401 52.8396V53.5647C202.401 56.0696 202.753 58.3108 203.456 60.2883C204.159 62.2439 205.214 63.793 206.62 64.9355C208.048 66.0562 209.806 66.6165 211.893 66.6165ZM232.822 71V66.8472L238.195 65.9243V40.447L232.822 39.5242V35.3384H243.995L244.457 40.6448C245.643 38.7551 247.126 37.2939 248.906 36.2612C250.708 35.2065 252.751 34.6792 255.037 34.6792C258.882 34.6792 261.859 35.8108 263.969 38.074C266.078 40.3152 267.133 43.7869 267.133 48.489V65.9243L272.505 66.8472V71H255.267V66.8472L260.64 65.9243V48.6208C260.64 45.4788 260.013 43.2485 258.761 41.9302C257.531 40.6118 255.641 39.9526 253.092 39.9526C251.224 39.9526 249.565 40.4031 248.115 41.304C246.687 42.2048 245.544 43.4353 244.688 44.9954V65.9243L250.06 66.8472V71H232.822ZM293.632 71V66.8472L299.004 65.9243V28.1204L293.632 27.1975V23.0117H299.004H312.418C316.659 23.0117 320.35 24.0225 323.492 26.0439C326.656 28.0654 329.117 30.845 330.875 34.3826C332.633 37.9202 333.512 41.9631 333.512 46.5115V47.5332C333.512 51.9717 332.666 55.9707 330.974 59.5303C329.282 63.0679 326.876 65.8694 323.756 67.9348C320.658 69.9783 316.989 71 312.748 71H293.632ZM305.497 65.9243H312.418C315.45 65.9243 318.054 65.1003 320.229 63.4524C322.405 61.7825 324.075 59.5632 325.239 56.7947C326.426 54.0042 327.019 50.917 327.019 47.5332V46.4456C327.019 42.9519 326.426 39.8318 325.239 37.0852C324.075 34.3167 322.405 32.1304 320.229 30.5264C318.054 28.9224 315.45 28.1204 312.418 28.1204H305.497V65.9243ZM354.342 71.6921C351.046 71.6921 348.179 70.9451 345.74 69.4509C343.301 67.9348 341.411 65.8364 340.071 63.1558C338.752 60.4751 338.093 57.377 338.093 53.8613V52.4111C338.093 49.0273 338.785 46.0061 340.17 43.3474C341.576 40.6667 343.433 38.5574 345.74 37.0193C348.069 35.4592 350.607 34.6792 353.353 34.6792C356.561 34.6792 359.242 35.3384 361.395 36.6567C363.571 37.9751 365.208 39.8318 366.306 42.2268C367.405 44.5999 367.954 47.4014 367.954 50.6313V54.6853H344.817L344.718 54.8501C344.762 57.1353 345.157 59.1677 345.905 60.9475C346.674 62.7053 347.772 64.0896 349.2 65.1003C350.629 66.1111 352.343 66.6165 354.342 66.6165C356.539 66.6165 358.462 66.3088 360.11 65.6936C361.78 65.0564 363.219 64.1885 364.427 63.0898L366.965 67.3086C365.691 68.5391 363.999 69.5828 361.89 70.4397C359.802 71.2747 357.286 71.6921 354.342 71.6921ZM345.015 49.6096H361.461V48.7527C361.461 47.0388 361.154 45.5117 360.538 44.1714C359.945 42.8091 359.044 41.7434 357.836 40.9744C356.649 40.1833 355.155 39.7878 353.353 39.7878C351.903 39.7878 350.585 40.2163 349.398 41.0732C348.212 41.9082 347.234 43.0508 346.465 44.501C345.696 45.9512 345.19 47.5991 344.949 49.4448L345.015 49.6096ZM387.037 71L374.348 40.0186L370.657 39.5242V35.3384H385.62V39.5242L380.973 40.1833L388.883 60.4861L389.806 63.3535H390.004L391.058 60.4861L398.408 40.1833L393.629 39.5242V35.3384H408.56V39.5242L404.802 40.0186L392.739 71H387.037Z" fill="#1C1C1C"/>
<path d="M279.459 71V64.3423H285.952V71H279.459ZM468.683 50.1939V53.1662C466.014 53.1662 464.144 53.7255 463.074 54.8441C462.019 55.9627 461.492 57.8324 461.492 60.4531V68.1236C461.492 70.3288 461.276 72.2385 460.845 73.8525C460.429 75.4664 459.742 76.8008 458.783 77.8555C457.824 78.9102 456.546 79.6932 454.948 80.2045C453.35 80.7159 451.376 80.9716 449.027 80.9716V76.2734C450.881 76.2734 452.335 75.9778 453.39 75.3865C454.46 74.8113 455.212 73.9244 455.643 72.7259C456.09 71.5273 456.314 69.9933 456.314 68.1236V58.5355C456.314 57.2891 456.474 56.1545 456.794 55.1317C457.129 54.109 457.736 53.2301 458.615 52.495C459.494 51.7599 460.741 51.1926 462.355 50.7931C463.985 50.3936 466.094 50.1939 468.683 50.1939ZM449.027 19.608C451.376 19.608 453.35 19.8636 454.948 20.375C456.546 20.8864 457.824 21.6694 458.783 22.7241C459.742 23.7788 460.429 25.1131 460.845 26.7271C461.276 28.3411 461.492 30.2507 461.492 32.456V40.1264C461.492 42.7472 462.019 44.6168 463.074 45.7354C464.144 46.854 466.014 47.4134 468.683 47.4134V50.3857C466.094 50.3857 463.985 50.1859 462.355 49.7864C460.741 49.3869 459.494 48.8196 458.615 48.0845C457.736 47.3494 457.129 46.4705 456.794 45.4478C456.474 44.4251 456.314 43.2905 456.314 42.044V32.456C456.314 30.5863 456.09 29.0522 455.643 27.8537C455.212 26.6392 454.46 25.7443 453.39 25.169C452.335 24.5937 450.881 24.3061 449.027 24.3061V19.608ZM468.683 47.4134V53.1662H463.026V47.4134H468.683Z" fill="#42C1CA"/>
</svg>
