<?xml version="1.0" encoding="utf-8"?>
<!-- Generator: Adobe Illustrator 27.5.0, SVG Export Plug-In . SVG Version: 6.00 Build 0)  -->
<svg version="1.1" xmlns="http://www.w3.org/2000/svg" xmlns:xlink="http://www.w3.org/1999/xlink" x="0px" y="0px"
	 viewBox="0 0 500 500" style="enable-background:new 0 0 500 500;" xml:space="preserve">
<g id="BACKGROUND">
	<g>
		<polygon style="fill:#CAD2F9;" points="67.852,197.562 67.852,193.197 64.95,193.197 64.95,197.562 60.585,197.562 
			60.585,200.464 64.95,200.464 64.95,204.829 67.852,204.829 67.852,200.464 72.217,200.464 72.217,197.562 		"/>
		<polygon style="fill:#CAD2F9;" points="121.511,125.03 121.511,119.449 117.801,119.449 117.801,125.03 112.221,125.03 
			112.221,128.739 117.801,128.739 117.801,134.32 121.511,134.32 121.511,128.739 127.092,128.739 127.092,125.03 		"/>
		<polygon style="fill:#CAD2F9;" points="244.681,182.527 244.681,172.338 237.908,172.338 237.908,182.527 227.72,182.527 
			227.72,189.3 237.908,189.3 237.908,199.489 244.681,199.489 244.681,189.3 254.871,189.3 254.871,182.527 		"/>
		<polygon style="fill:#CAD2F9;" points="387.053,112.775 387.053,108.41 384.151,108.41 384.151,112.775 379.786,112.775 
			379.786,115.677 384.151,115.677 384.151,120.042 387.053,120.042 387.053,115.677 391.418,115.677 391.418,112.775 		"/>
		<polygon style="fill:#CAD2F9;" points="446.501,137.325 446.501,131.744 442.792,131.744 442.792,137.325 437.211,137.325 
			437.211,141.034 442.792,141.034 442.792,146.615 446.501,146.615 446.501,141.034 452.082,141.034 452.082,137.325 		"/>
		<polygon style="fill:#CAD2F9;" points="47.541,162.75 47.541,152.561 40.767,152.561 40.767,162.75 30.579,162.75 30.579,169.523 
			40.767,169.523 40.767,179.712 47.541,179.712 47.541,169.523 57.73,169.523 57.73,162.75 		"/>
	</g>
	<g>
		<path style="fill:#EEF1FF;" d="M317.31,71.313c0,1.063-0.862,1.925-1.925,1.925c-1.063,0-1.925-0.862-1.925-1.925
			s0.862-1.925,1.925-1.925C316.448,69.388,317.31,70.25,317.31,71.313z"/>
		<circle style="fill:#EEF1FF;" cx="179.305" cy="86.711" r="3.646"/>
		<circle style="fill:#EEF1FF;" cx="57.73" cy="114.226" r="3.646"/>
		<path style="fill:#EEF1FF;" d="M459.211,167.692c0,1.063-0.862,1.925-1.925,1.925c-1.063,0-1.925-0.862-1.925-1.925
			s0.862-1.925,1.925-1.925C458.349,165.767,459.211,166.629,459.211,167.692z"/>
		<path style="fill:#EEF1FF;" d="M465.288,330.427c0,1.063-0.862,1.925-1.925,1.925c-1.063,0-1.925-0.862-1.925-1.925
			c0-1.063,0.862-1.925,1.925-1.925C464.426,328.501,465.288,329.363,465.288,330.427z"/>
		<circle style="fill:#EEF1FF;" cx="468.621" cy="374.898" r="3.646"/>
		<circle style="fill:#EEF1FF;" cx="26.794" cy="245.333" r="3.646"/>
		<path style="fill:#EEF1FF;" d="M126.615,73.239c0,1.063-0.862,1.925-1.925,1.925c-1.063,0-1.925-0.862-1.925-1.925
			s0.862-1.925,1.925-1.925C125.753,71.313,126.615,72.175,126.615,73.239z"/>
		<path style="fill:#EEF1FF;" d="M38.654,387.294c0,1.063-0.862,1.925-1.925,1.925c-1.063,0-1.925-0.862-1.925-1.925
			s0.862-1.925,1.925-1.925C37.792,385.369,38.654,386.231,38.654,387.294z"/>
	</g>
</g>
<g id="OBJECTS">
	<ellipse style="fill:#EDF0FC;" cx="250" cy="413.548" rx="229.709" ry="17.064"/>
	<g>
		<g>
			<path style="fill:#EB725F;" d="M401.124,404.438c0,0-10.723-48.253,56.042-62.445
				C457.167,341.993,462.533,394.451,401.124,404.438z"/>
			<g>
				<defs>
					<path id="SVGID_1_" d="M401.124,404.438c0,0-10.723-48.253,56.042-62.445C457.167,341.993,462.533,394.451,401.124,404.438z"/>
				</defs>
				<clipPath id="SVGID_00000012456840490491385030000018072070477395298475_">
					<use xlink:href="#SVGID_1_"  style="overflow:visible;"/>
				</clipPath>
				<path style="clip-path:url(#SVGID_00000012456840490491385030000018072070477395298475_);fill:#F9A9A0;" d="M462.327,352.683
					l0.095-0.538c-0.089-0.016-8.648-1.465-18.701,0.713c3.618-2.851,7.513-5.688,11.738-8.465l-0.3-0.457
					c-7.256,4.77-13.582,9.712-19.094,14.609c0.866-11.391,4.502-18.668,4.539-18.742l-0.486-0.247
					c-0.039,0.075-3.849,7.674-4.642,19.506c-2.473,2.219-4.762,4.424-6.906,6.601c-0.02,0.01-0.041,0.019-0.061,0.029l0.011,0.021
					c-1.721,1.748-3.342,3.475-4.861,5.173c-1.439-14.017,2.838-23.799,2.882-23.897l-0.498-0.223
					c-0.045,0.1-4.493,10.232-2.882,24.67c-1.803,2.034-3.449,4.015-4.976,5.939c-0.004,0.001-0.009,0.003-0.013,0.004l0.003,0.008
					c-1.211,1.527-2.34,3.011-3.387,4.448c-0.986-12.629-0.428-24.607-0.422-24.729l-0.546-0.026
					c-0.006,0.124-0.585,12.537,0.473,25.432c-3.801,5.283-6.497,9.849-8.305,13.25c-2.325-11.011-1.626-26.125-1.618-26.28
					l-0.546-0.026c-0.007,0.158-0.74,15.929,1.767,27.056c-1.803,3.467-2.594,5.536-2.623,5.616l0.511,0.19
					c0.042-0.113,1.633-4.26,5.491-10.727c15.529-4.975,32.244-1.591,32.412-1.557l0.11-0.535
					c-0.167-0.035-16.601-3.361-32.105,1.393c2.262-3.73,5.265-8.181,9.119-13.048c13.865-4.77,34.515-1.781,34.723-1.751l0.08-0.54
					c-0.206-0.032-20.217-2.924-34.185,1.513c2.801-3.486,6.042-7.171,9.766-10.955c11.388-5.731,32.636-4.904,32.851-4.895
					l0.022-0.545c-0.205-0.009-20.011-0.779-31.768,4.326c3.758-3.741,7.995-7.562,12.748-11.365
					C453.156,351.121,462.237,352.667,462.327,352.683z"/>
			</g>
		</g>
		<g>
			<path style="fill:#EB725F;" d="M105.614,334.458c0,0-63.253-9.689-49.069-96.907C56.545,237.551,122.36,255.676,105.614,334.458z
				"/>
			<g>
				<defs>
					<path id="SVGID_00000090985020744110225890000011198717022853380998_" d="M105.614,334.458c0,0-63.253-9.689-49.069-96.907
						C56.545,237.551,122.36,255.676,105.614,334.458z"/>
				</defs>
				<clipPath id="SVGID_00000052806228322592407070000010409283186921871744_">
					<use xlink:href="#SVGID_00000090985020744110225890000011198717022853380998_"  style="overflow:visible;"/>
				</clipPath>
				<path style="clip-path:url(#SVGID_00000052806228322592407070000010409283186921871744_);fill:#F9A9A0;" d="M71.865,236.338
					l-0.605-0.367c-0.061,0.1-5.823,9.749-7.91,22.9c-1.743-5.703-3.34-11.732-4.71-18.134l-0.692,0.148
					c2.353,10.993,5.35,20.942,8.674,29.891c-13.338-6.386-20.415-14.186-20.487-14.266l-0.526,0.471
					c0.073,0.082,7.455,8.243,21.36,14.749c1.518,4.025,3.105,7.82,4.726,11.429c0.003,0.029,0.004,0.059,0.007,0.087l0.031-0.003
					c1.302,2.896,2.626,5.662,3.962,8.291c-17.589-4.837-27.387-14.585-27.485-14.684l-0.503,0.496
					c0.1,0.102,10.239,10.22,28.417,15.046c1.609,3.129,3.228,6.044,4.834,8.789c0,0.006-0.001,0.012-0.001,0.017l0.011,0.001
					c1.274,2.178,2.536,4.235,3.779,6.172c-15.701-4.733-29.893-11.022-30.037-11.087l-0.288,0.646
					c0.147,0.065,14.853,6.585,30.909,11.356c4.592,7.064,8.838,12.458,12.093,16.235c-14.377-2.358-32.286-10.288-32.469-10.371
					l-0.288,0.646c0.187,0.083,18.874,8.362,33.476,10.555c3.338,3.802,5.464,5.726,5.547,5.799l0.469-0.527
					c-0.117-0.104-4.375-3.968-10.369-11.656c1.279-21.071,13.2-39.654,13.32-39.84l-0.594-0.384
					c-0.12,0.185-11.841,18.456-13.374,39.394c-3.439-4.479-7.403-10.19-11.468-17.122c0.746-18.967,14.037-42.483,14.171-42.719
					l-0.614-0.35c-0.135,0.234-13.009,23.023-14.205,41.959c-2.892-5.014-5.819-10.654-8.639-16.921
					c-1.575-16.429,9.386-41.68,9.499-41.935l-0.648-0.283c-0.107,0.243-10.324,23.781-9.678,40.361
					c-2.752-6.29-5.375-13.194-7.736-20.712C65.678,246.671,71.803,236.439,71.865,236.338z"/>
			</g>
		</g>
		<g>
			<g>
				<path style="fill:#F9AB43;" d="M122.523,400.603c-2.255-0.846-4.439-1.923-6.581-3.018c-5.588-2.857-10.931-6.196-16.022-9.862
					c-7.474-5.384-14.422-11.494-20.712-18.223c-7.909-8.46-14.786-17.887-20.449-27.988c-6.884-12.278-11.974-25.535-15.344-39.194
					c-0.469-1.901-0.903-3.811-1.31-5.727c-0.257-1.211,1.607-1.714,1.866-0.496c2.977,14.014,7.646,27.658,14.261,40.379
					c5.42,10.422,12.091,20.187,19.893,28.973c6.222,7.006,13.138,13.419,20.635,19.041c5.236,3.927,10.752,7.499,16.529,10.58
					c1.753,0.934,3.53,1.824,5.338,2.646c0.539,0.245,1.08,0.484,1.625,0.713c-0.276-0.116,0.229,0.094,0.351,0.143
					c0.107,0.043,0.22,0.08,0.325,0.129c0.035,0.017,0.074,0.029,0.11,0.042C124.19,399.175,123.689,401.041,122.523,400.603
					L122.523,400.603z"/>
			</g>
			<g>
				<path style="fill:#F9AB43;" d="M47.767,313.86c0,0,9.115-14.548-10.528-39.964C37.239,273.896,33.218,302.883,47.767,313.86z"/>
				<path style="fill:#FFCF74;" d="M39.084,279.96c0.812,2.402,1.604,4.801,2.348,7.215c0.741,2.414,1.476,4.829,2.104,7.272
					c0.702,2.424,1.271,4.882,1.832,7.341c0.287,1.229,0.548,2.464,0.777,3.706c0.291,1.233,0.447,2.487,0.714,3.73
					c-0.138-2.531-0.416-5.061-0.867-7.56c-0.435-2.502-1.015-4.978-1.658-7.434c-0.7-2.441-1.427-4.874-2.302-7.257
					C41.16,284.591,40.212,282.233,39.084,279.96z"/>
			</g>
			<g>
				<g>
					<path style="fill:#F9AB43;" d="M54.865,331.535c0,0-2.064-17.043-33.32-24.449C21.545,307.086,36.65,332.151,54.865,331.535z"
						/>
					<path style="fill:#FFCF74;" d="M26.793,310.64c2.142,1.357,4.267,2.724,6.363,4.133c2.094,1.411,4.184,2.826,6.21,4.33
						c2.07,1.443,4.058,2.996,6.041,4.555c0.996,0.775,1.976,1.571,2.935,2.393c1.001,0.776,1.912,1.652,2.901,2.45
						c-1.699-1.881-3.507-3.673-5.429-5.332c-1.912-1.672-3.92-3.232-5.965-4.736c-2.079-1.458-4.175-2.892-6.354-4.195
						C31.319,312.935,29.1,311.698,26.793,310.64z"/>
				</g>
				<g>
					<path style="fill:#F9AB43;" d="M55.096,331.036c0,0,14.707-8.855,8.679-40.406C63.775,290.63,47.082,314.667,55.096,331.036z"
						/>
					<path style="fill:#FFCF74;" d="M62.68,296.873c-0.362,2.509-0.74,5.008-1.168,7.497c-0.431,2.488-0.867,4.974-1.411,7.438
						c-0.47,2.479-1.074,4.929-1.686,7.376c-0.3,1.226-0.626,2.446-0.982,3.657c-0.298,1.231-0.725,2.42-1.049,3.649
						c1.022-2.32,1.917-4.702,2.645-7.135c0.743-2.429,1.345-4.899,1.882-7.38c0.479-2.493,0.931-4.993,1.229-7.514
						C62.437,301.942,62.658,299.411,62.68,296.873z"/>
				</g>
			</g>
			<g>
				<g>
					<path style="fill:#F9AB43;" d="M68.644,354.965c0,0-5.083-16.397-37.161-18.085C31.484,336.88,50.834,358.834,68.644,354.965z"
						/>
					<path style="fill:#FFCF74;" d="M37.284,339.436c2.35,0.951,4.685,1.916,7,2.926c2.313,1.013,4.623,2.031,6.885,3.148
						c2.295,1.049,4.529,2.22,6.76,3.4c1.119,0.584,2.225,1.192,3.316,1.828c1.124,0.584,2.177,1.283,3.293,1.891
						c-2.008-1.547-4.108-2.985-6.297-4.273c-2.181-1.302-4.435-2.477-6.716-3.591c-2.306-1.061-4.626-2.097-7.002-2.989
						C42.148,340.884,39.743,340.064,37.284,339.436z"/>
				</g>
				<g>
					<path style="fill:#F9AB43;" d="M68.782,354.433c0,0,12.883-11.346,1.301-41.307C70.084,313.126,57.966,339.764,68.782,354.433z
						"/>
					<path style="fill:#FFCF74;" d="M70.124,319.465c0.093,2.534,0.168,5.059,0.193,7.585c0.022,2.525,0.038,5.049-0.056,7.57
						c-0.018,2.523-0.173,5.041-0.337,7.559c-0.075,1.26-0.178,2.518-0.312,3.774c-0.073,1.265-0.28,2.511-0.379,3.778
						c0.59-2.465,1.044-4.97,1.324-7.494c0.297-2.522,0.446-5.06,0.53-7.598c0.025-2.539,0.022-5.079-0.137-7.612
						C70.793,324.495,70.557,321.965,70.124,319.465z"/>
				</g>
			</g>
			<g>
				<g>
					<path style="fill:#F9AB43;" d="M87.969,376.978c0,0-9.002-14.618-40.491-8.273C47.478,368.705,71.681,385.155,87.969,376.978z"
						/>
					<path style="fill:#FFCF74;" d="M53.732,369.738c2.513,0.337,5.015,0.69,7.508,1.093c2.493,0.406,4.983,0.817,7.451,1.336
						c2.484,0.445,4.939,1.024,7.393,1.611c1.229,0.287,2.452,0.601,3.667,0.946c1.234,0.286,2.427,0.701,3.66,1.012
						c-2.33-0.998-4.721-1.87-7.162-2.573c-2.436-0.719-4.912-1.296-7.399-1.808c-2.498-0.454-5.002-0.881-7.526-1.153
						C58.803,369.93,56.269,369.734,53.732,369.738z"/>
				</g>
				<g>
					<path style="fill:#F9AB43;" d="M87.97,376.428c0,0,9.656-14.194-9.015-40.333C78.956,336.096,73.845,364.91,87.97,376.428z"/>
					<path style="fill:#FFCF74;" d="M80.571,342.225c0.721,2.431,1.422,4.858,2.074,7.299c0.649,2.44,1.293,4.881,1.829,7.346
						c0.61,2.449,1.086,4.926,1.554,7.405c0.241,1.239,0.454,2.483,0.637,3.733c0.244,1.243,0.353,2.502,0.573,3.754
						c-0.042-2.534-0.225-5.073-0.582-7.587c-0.34-2.517-0.827-5.012-1.377-7.491c-0.607-2.465-1.243-4.925-2.026-7.339
						C82.47,346.931,81.613,344.539,80.571,342.225z"/>
				</g>
			</g>
			<g>
				<g>
					<path style="fill:#F9AB43;" d="M109.539,393.392c0,0-11.37-12.862-41.31-1.225C68.23,392.167,94.89,404.235,109.539,393.392z"
						/>
					<path style="fill:#FFCF74;" d="M74.568,392.115c2.534-0.098,5.059-0.178,7.585-0.207c2.525-0.027,5.049-0.047,7.57,0.042
						c2.523,0.014,5.042,0.164,7.559,0.323c1.26,0.073,2.519,0.173,3.775,0.305c1.265,0.071,2.511,0.275,3.779,0.372
						c-2.466-0.585-4.972-1.035-7.496-1.31c-2.523-0.292-5.061-0.437-7.599-0.515c-2.539-0.021-5.079-0.012-7.612,0.151
						C79.597,391.437,77.068,391.677,74.568,392.115z"/>
				</g>
				<g>
					<path style="fill:#F9AB43;" d="M109.446,392.85c0,0,7.086-15.637-15.781-38.196C93.666,354.654,93.559,383.918,109.446,392.85z
						"/>
					<path style="fill:#FFCF74;" d="M96.306,360.416c1.126,2.272,2.232,4.544,3.292,6.836c1.057,2.293,2.109,4.588,3.058,6.925
						c1.02,2.308,1.913,4.668,2.798,7.03c0.449,1.18,0.873,2.369,1.266,3.569c0.453,1.183,0.776,2.404,1.207,3.6
						c-0.475-2.49-1.09-4.96-1.871-7.376c-0.766-2.422-1.672-4.797-2.638-7.145c-1.02-2.325-2.067-4.64-3.252-6.884
						C98.982,364.728,97.728,362.518,96.306,360.416z"/>
				</g>
			</g>
		</g>
		<g>
			<g>
				<path style="fill:#F9AB43;" d="M373.873,375.653c2.199-0.981,4.315-2.188,6.386-3.411c5.405-3.19,10.536-6.846,15.395-10.815
					c7.135-5.827,13.699-12.347,19.57-19.445c7.382-8.924,13.675-18.75,18.716-29.176c6.128-12.673,10.405-26.214,12.942-40.052
					c0.353-1.926,0.671-3.859,0.961-5.795c0.183-1.224-1.708-1.613-1.892-0.382c-2.122,14.169-5.956,28.07-11.789,41.169
					c-4.779,10.732-10.846,20.883-18.101,30.125c-5.786,7.37-12.301,14.19-19.444,20.256c-4.989,4.236-10.278,8.137-15.857,11.562
					c-1.693,1.039-3.413,2.035-5.168,2.965c-0.523,0.277-1.049,0.548-1.579,0.81c0.268-0.133-0.223,0.108-0.341,0.164
					c-0.104,0.05-0.214,0.093-0.316,0.148c-0.034,0.019-0.072,0.033-0.108,0.049C372.122,374.328,372.735,376.16,373.873,375.653
					L373.873,375.653z"/>
			</g>
			<g>
				<path style="fill:#F9AB43;" d="M443.236,284.54c0,0-9.979-13.969,8.088-40.529C451.324,244.011,457.093,272.701,443.236,284.54z
					"/>
				<path style="fill:#FFCF74;" d="M449.849,250.176c-0.665,2.447-1.31,4.89-1.906,7.344c-0.593,2.455-1.18,4.909-1.66,7.386
					c-0.554,2.462-0.973,4.949-1.384,7.439c-0.212,1.244-0.397,2.493-0.551,3.747c-0.215,1.248-0.296,2.509-0.487,3.766
					c-0.016-2.535,0.109-5.077,0.408-7.599c0.283-2.524,0.712-5.03,1.205-7.52c0.551-2.479,1.129-4.952,1.858-7.383
					C448.058,254.924,448.861,252.514,449.849,250.176z"/>
			</g>
			<g>
				<g>
					<path style="fill:#F9AB43;" d="M437.222,302.612c0,0,1.027-17.136,31.778-26.423C469,276.19,455.441,302.124,437.222,302.612z"
						/>
					<path style="fill:#FFCF74;" d="M463.976,280.055c-2.056,1.484-4.094,2.978-6.101,4.511c-2.005,1.535-4.005,3.074-5.936,4.698
						c-1.979,1.566-3.869,3.236-5.754,4.913c-0.948,0.834-1.877,1.688-2.785,2.566c-0.953,0.835-1.808,1.765-2.747,2.622
						c1.582-1.981,3.278-3.879,5.096-5.651c1.807-1.785,3.717-3.463,5.667-5.089c1.987-1.581,3.992-3.14,6.088-4.572
						C459.597,282.62,461.738,281.251,463.976,280.055z"/>
				</g>
				<g>
					<path style="fill:#F9AB43;" d="M436.961,302.129c0,0-15.217-7.947-11.111-39.806
						C425.85,262.323,443.968,285.304,436.961,302.129z"/>
					<path style="fill:#FFCF74;" d="M427.322,268.488c0.513,2.483,1.043,4.954,1.621,7.412c0.581,2.458,1.167,4.912,1.859,7.339
						c0.619,2.446,1.37,4.855,2.129,7.261c0.373,1.206,0.773,2.403,1.202,3.591c0.372,1.211,0.871,2.372,1.268,3.579
						c-1.16-2.254-2.198-4.577-3.072-6.962c-0.889-2.379-1.64-4.808-2.326-7.253c-0.63-2.46-1.232-4.927-1.681-7.426
						C427.871,273.533,427.497,271.02,427.322,268.488z"/>
				</g>
			</g>
			<g>
				<g>
					<path style="fill:#F9AB43;" d="M424.887,326.834c0,0,4.08-16.675,35.997-20.303
						C460.884,306.531,442.899,329.617,424.887,326.834z"/>
					<path style="fill:#FFCF74;" d="M455.249,309.434c-2.288,1.092-4.561,2.196-6.81,3.345c-2.248,1.151-4.491,2.307-6.682,3.559
						c-2.227,1.186-4.387,2.491-6.541,3.803c-1.082,0.651-2.149,1.325-3.2,2.026c-1.087,0.651-2.095,1.412-3.172,2.087
						c1.911-1.665,3.92-3.229,6.026-4.647c2.098-1.432,4.277-2.741,6.486-3.992c2.238-1.199,4.49-2.374,6.809-3.408
						C450.482,311.174,452.833,310.21,455.249,309.434z"/>
				</g>
				<g>
					<path style="fill:#F9AB43;" d="M424.717,326.312c0,0-13.547-10.544-3.801-41.152
						C420.916,285.159,434.625,311.014,424.717,326.312z"/>
					<path style="fill:#FFCF74;" d="M421.26,291.489c0.06,2.535,0.138,5.06,0.266,7.583c0.131,2.522,0.268,5.042,0.515,7.553
						c0.171,2.518,0.478,5.022,0.794,7.525c0.151,1.253,0.33,2.503,0.539,3.748c0.15,1.258,0.432,2.489,0.607,3.749
						c-0.738-2.425-1.343-4.897-1.775-7.4c-0.449-2.5-0.752-5.024-0.989-7.552c-0.179-2.533-0.329-5.068-0.324-7.607
						C420.897,296.55,420.979,294.011,421.26,291.489z"/>
				</g>
			</g>
			<g>
				<g>
					<path style="fill:#F9AB43;" d="M406.932,349.977c0,0,8.1-15.136,39.916-10.711
						C446.848,339.267,423.686,357.153,406.932,349.977z"/>
					<path style="fill:#FFCF74;" d="M440.668,340.676c-2.488,0.488-4.964,0.993-7.428,1.546c-2.463,0.556-4.924,1.117-7.357,1.785
						c-2.452,0.595-4.868,1.321-7.282,2.056c-1.21,0.361-2.411,0.749-3.603,1.166c-1.215,0.36-2.38,0.847-3.592,1.232
						c2.265-1.138,4.599-2.152,6.992-3.002c2.388-0.865,4.824-1.591,7.276-2.253c2.466-0.605,4.94-1.182,7.442-1.607
						C435.618,341.176,438.134,340.827,440.668,340.676z"/>
				</g>
				<g>
					<path style="fill:#F9AB43;" d="M406.897,349.429c0,0-10.498-13.583,6.554-40.805
						C413.452,308.624,420.299,337.077,406.897,349.429z"/>
					<path style="fill:#FFCF74;" d="M412.21,314.84c-0.572,2.47-1.125,4.936-1.628,7.411c-0.501,2.475-0.995,4.95-1.38,7.443
						c-0.46,2.481-0.786,4.983-1.102,7.486c-0.165,1.251-0.303,2.506-0.41,3.765c-0.168,1.256-0.201,2.518-0.345,3.782
						c-0.111-2.532-0.083-5.077,0.121-7.609c0.187-2.533,0.521-5.053,0.921-7.56c0.457-2.497,0.942-4.991,1.578-7.448
						C410.6,319.653,411.311,317.213,412.21,314.84z"/>
				</g>
			</g>
			<g>
				<g>
					<path style="fill:#F9AB43;" d="M386.396,367.668c0,0,10.569-13.527,41.159-3.725
						C427.555,363.943,401.675,377.604,386.396,367.668z"/>
					<path style="fill:#FFCF74;" d="M421.225,364.275c-2.535,0.056-5.06,0.129-7.583,0.252c-2.522,0.126-5.043,0.259-7.554,0.501
						c-2.518,0.166-5.022,0.469-7.526,0.78c-1.253,0.149-2.503,0.325-3.749,0.533c-1.258,0.147-2.49,0.427-3.75,0.6
						c2.426-0.733,4.9-1.334,7.403-1.762c2.501-0.444,5.025-0.742,7.554-0.975c2.533-0.174,5.069-0.32,7.607-0.31
						C416.164,363.902,418.703,363.989,421.225,364.275z"/>
				</g>
				<g>
					<path style="fill:#F9AB43;" d="M386.455,367.121c0,0-8.02-15.178,13.438-39.082
						C399.893,328.039,401.772,357.244,386.455,367.121z"/>
					<path style="fill:#FFCF74;" d="M397.607,333.951c-0.986,2.336-1.952,4.671-2.872,7.023c-0.916,2.353-1.827,4.707-2.633,7.098
						c-0.878,2.366-1.626,4.775-2.366,7.187c-0.377,1.205-0.728,2.417-1.048,3.639c-0.38,1.208-0.629,2.447-0.987,3.667
						c0.323-2.514,0.787-5.017,1.421-7.476c0.618-2.464,1.378-4.889,2.2-7.292c0.877-2.383,1.782-4.756,2.829-7.069
						C395.197,338.417,396.315,336.136,397.607,333.951z"/>
				</g>
			</g>
		</g>
	</g>
	<g>
		<path style="fill:#6E7FDD;" d="M406.99,402.48c0,4.4-3.6,8-8,8H101.01c-4.4,0-8-3.6-8-8V220.5c0-4.4,3.6-8,8-8h297.98
			c4.4,0,8,3.6,8,8V402.48z"/>
		<rect x="121.133" y="225.171" style="fill:#E3EBFC;" width="257.734" height="172.637"/>
		<g>
			<path style="fill:#D0DBF7;" d="M303.818,286.3h-35.442v-35.729h-72.337v124.327h107.922v-88.454L303.818,286.3z M251.908,343.702
				c-1.346,1.297-2.974,1.945-4.883,1.945c-1.957,0-3.586-0.648-4.881-1.945c-1.298-1.297-1.947-2.9-1.947-4.809
				c0-1.957,0.648-3.572,1.947-4.845c1.295-1.273,2.924-1.909,4.881-1.909c1.909,0,3.536,0.648,4.883,1.945
				c1.345,1.298,2.019,2.9,2.019,4.809C253.926,340.802,253.252,342.406,251.908,343.702z M265.746,312.428
				c-1.127,1.542-3.036,3.266-5.727,5.175c-1.811,1.322-3.133,2.338-3.965,3.048c-0.832,0.71-1.456,1.504-1.871,2.385
				c-0.417,0.882-0.624,1.959-0.624,3.229v1.396h-12.921v-1.542c0-4.993,1.982-8.884,5.946-11.674l1.908-1.321
				c1.811-1.174,3.072-2.14,3.781-2.899c0.709-0.758,1.065-1.7,1.065-2.827c0-2.838-2.375-4.258-7.122-4.258
				c-2.202,0-4.478,0.294-6.828,0.881c-2.348,0.587-4.576,1.42-6.68,2.495v-11.305c4.502-2.055,9.544-3.083,15.123-3.083
				c6.02,0,10.792,1.261,14.315,3.781c3.524,2.521,5.286,6.007,5.286,10.46C267.434,308.868,266.871,310.887,265.746,312.428z"/>
			<polygon style="fill:#D0DBF7;" points="274.4,253.742 274.4,280.208 300.654,280.208 			"/>
		</g>
	</g>
	<g>
		<g>
			<g>
				<g>
					<rect x="76.671" y="289.886" style="fill:#F5F9FF;" width="163.478" height="120.593"/>
					<rect x="76.671" y="289.886" style="fill:#D0DBF7;" width="163.478" height="15.041"/>
				</g>
				<g>
					<path style="fill:#EB725F;" d="M89.795,297.754c0,1.901-1.541,3.442-3.442,3.442c-1.901,0-3.442-1.541-3.442-3.442
						c0-1.901,1.541-3.442,3.442-3.442C88.254,294.312,89.795,295.853,89.795,297.754z"/>
					<path style="fill:#F9AB43;" d="M101.385,297.754c0,1.901-1.541,3.442-3.442,3.442c-1.901,0-3.442-1.541-3.442-3.442
						c0-1.901,1.541-3.442,3.442-3.442C99.844,294.312,101.385,295.853,101.385,297.754z"/>
					<path style="fill:#6E7FDD;" d="M112.975,297.754c0,1.901-1.541,3.442-3.442,3.442c-1.901,0-3.442-1.541-3.442-3.442
						c0-1.901,1.541-3.442,3.442-3.442C111.434,294.312,112.975,295.853,112.975,297.754z"/>
				</g>
			</g>
			<g>
				<path style="fill:#D0DBF7;" d="M225.826,357.182c-2.779-2.711-5.631-5.095-8.437-7.058c-2.965-2.159-5.901-3.915-8.417-5.37
					c-5.563-3.098-11.2-5.601-16.746-7.431c-10.713-3.589-21.625-5.333-33.365-5.333c-0.028,0-0.055,0-0.082,0
					c-11.847,0.055-22.782,1.822-33.416,5.399c-5.538,1.831-11.173,4.328-16.785,7.444c-2.468,1.418-5.394,3.161-8.343,5.299
					c-2.854,1.989-5.706,4.36-8.476,7.045l-1.906,1.848l1.906,1.848c2.769,2.686,5.621,5.056,8.437,7.019
					c2.988,2.165,5.914,3.908,8.416,5.347c5.578,3.096,11.214,5.593,16.739,7.419c10.648,3.582,21.582,5.349,33.438,5.403
					c0.027,0,0.054,0,0.082,0c11.734,0,22.646-1.745,33.346-5.329c5.554-1.833,11.191-4.334,16.791-7.454
					c2.481-1.435,5.417-3.191,8.343-5.323c2.848-1.992,5.7-4.377,8.476-7.087l1.89-1.843L225.826,357.182z M158.784,377.122
					c-9.995,0-18.097-8.102-18.097-18.097c0-9.994,8.102-18.097,18.097-18.097c2.76,0,5.365,0.636,7.706,1.741
					c-1.48,1.286-2.436,3.16-2.436,5.276c0,3.875,3.141,7.017,7.017,7.017c1.854,0,3.527-0.733,4.781-1.906
					c0.655,1.872,1.029,3.874,1.029,5.969C176.88,369.02,168.778,377.122,158.784,377.122z"/>
				<path style="fill:#EB725F;" d="M158.41,317.47c-22.914,0-41.556,18.641-41.556,41.556c0,22.914,18.642,41.557,41.556,41.557
					c22.914,0,41.557-18.642,41.557-41.557C199.967,336.111,181.325,317.47,158.41,317.47z M158.41,325.306
					c7.888,0,15.145,2.729,20.895,7.284l-47.332,47.332c-4.554-5.75-7.284-13.008-7.284-20.895
					C124.69,340.433,139.816,325.306,158.41,325.306z M158.41,392.746c-7.888,0-15.146-2.73-20.896-7.284l47.332-47.332
					c4.555,5.75,7.285,13.008,7.285,20.895C192.131,377.619,177.004,392.746,158.41,392.746z"/>
			</g>
		</g>
		<g>
			<g>
				<g>
					<rect x="269.886" y="153.574" style="fill:#F2F2F2;" width="153.443" height="113.19"/>
					<rect x="269.886" y="153.574" style="fill:#E0E9FC;" width="153.443" height="14.118"/>
				</g>
				<g>
					<path style="fill:#EB725F;" d="M282.204,160.958c0,1.784-1.447,3.231-3.231,3.231c-1.784,0-3.231-1.446-3.231-3.231
						c0-1.784,1.447-3.231,3.231-3.231C280.757,157.728,282.204,159.174,282.204,160.958z"/>
					<circle style="fill:#F9AB43;" cx="289.852" cy="160.958" r="3.231"/>
					<circle style="fill:#6E7FDD;" cx="300.73" cy="160.958" r="3.231"/>
				</g>
			</g>
		</g>
	</g>
	<g>
		<g>
			<g>
				<g>
					<g>
						<polygon style="fill:#F9AB43;" points="212.474,212.5 142.623,212.5 167.786,120.149 187.312,120.149 						"/>
						<g>
							<defs>
								<polygon id="SVGID_00000086664554234532609490000010952063696812812185_" points="212.474,212.5 142.623,212.5 
									167.786,120.149 187.312,120.149 								"/>
							</defs>
							<clipPath id="SVGID_00000097461993016696614660000016315506991354710952_">
								<use xlink:href="#SVGID_00000086664554234532609490000010952063696812812185_"  style="overflow:visible;"/>
							</clipPath>
							<g style="clip-path:url(#SVGID_00000097461993016696614660000016315506991354710952_);">
								<rect x="121.504" y="158.892" style="fill:#FFCF74;" width="112.09" height="10.735"/>
								<rect x="121.504" y="185.385" style="fill:#FFCF74;" width="112.09" height="10.734"/>
								<rect x="121.504" y="132.4" style="fill:#FFCF74;" width="112.09" height="10.735"/>
							</g>
						</g>
					</g>
					<path style="opacity:0.1;fill:#0046A0;" d="M212.474,212.5l-25.163-92.351h-9.256c7.529,13.06,12.035,29.627,12.035,47.657
						c0,16.693-3.862,32.131-10.41,44.694H212.474z"/>
				</g>
				<rect x="135.381" y="206.593" style="fill:#EB725F;" width="84.334" height="5.907"/>
			</g>
			<g style="opacity:0.3;">
				<path style="fill:#FFFFFF;" d="M170.163,128.109c-2.182,8.009-4.364,16.018-6.546,24.026
					c-3.475,12.755-6.951,25.511-10.426,38.266c-0.794,2.915-1.588,5.829-2.382,8.744c-0.586,2.152,2.752,3.071,3.338,0.92
					c2.182-8.009,4.364-16.018,6.546-24.026c3.475-12.755,6.951-25.511,10.426-38.266c0.794-2.915,1.588-5.829,2.382-8.744
					C174.088,126.877,170.749,125.959,170.163,128.109L170.163,128.109z"/>
			</g>
		</g>
		<g>
			<g>
				<g>
					<g>
						<polygon style="fill:#F9AB43;" points="423.534,410.48 303.344,410.48 346.64,251.574 380.238,251.574 						"/>
						<g>
							<defs>
								<polygon id="SVGID_00000024692723658667465790000005366759236201238672_" points="423.534,410.48 303.344,410.48 
									346.64,251.574 380.238,251.574 								"/>
							</defs>
							<clipPath id="SVGID_00000174577756207345303120000001596375852369100189_">
								<use xlink:href="#SVGID_00000024692723658667465790000005366759236201238672_"  style="overflow:visible;"/>
							</clipPath>
							<g style="clip-path:url(#SVGID_00000174577756207345303120000001596375852369100189_);">
								<rect x="267.004" y="318.238" style="fill:#FFCF74;" width="192.87" height="18.471"/>
								<rect x="267.004" y="363.823" style="fill:#FFCF74;" width="192.87" height="18.471"/>
								<rect x="267.004" y="272.653" style="fill:#FFCF74;" width="192.87" height="18.471"/>
							</g>
						</g>
					</g>
					<path style="opacity:0.1;fill:#0046A0;" d="M423.534,410.48l-43.296-158.905h-15.927
						c12.956,22.473,20.708,50.978,20.708,82.002c0,28.723-6.646,55.286-17.913,76.904H423.534z"/>
				</g>
				<rect x="290.883" y="400.315" style="fill:#EB725F;" width="145.112" height="10.165"/>
			</g>
			<g style="opacity:0.3;">
				<path style="fill:#FFFFFF;" d="M350.731,265.271c-3.755,13.78-7.509,27.561-11.264,41.341
					c-5.98,21.948-11.96,43.895-17.94,65.843c-1.367,5.015-2.733,10.03-4.099,15.045c-1.009,3.703,4.735,5.283,5.744,1.583
					c3.755-13.78,7.509-27.561,11.264-41.341c5.98-21.948,11.96-43.895,17.94-65.843c1.366-5.015,2.733-10.03,4.099-15.045
					C357.484,263.151,351.74,261.571,350.731,265.271L350.731,265.271z"/>
			</g>
		</g>
	</g>
	<g>
		<g>
			<g>
				
					<rect x="357.57" y="112.188" transform="matrix(0.2302 -0.9731 0.9731 0.2302 138.0096 459.9248)" style="fill:#EB725F;" width="4.298" height="61.081"/>
			</g>
			
				<rect x="373.437" y="132.625" transform="matrix(0.2302 -0.9731 0.9731 0.2302 147.3401 479.9077)" style="fill:#6E7FDD;" width="7.163" height="28.392"/>
		</g>
		<g>
			
				<ellipse transform="matrix(0.9998 -0.0187 0.0187 0.9998 -2.3989 6.0144)" style="fill:#6E7FDD;" cx="320.045" cy="131.139" rx="22.366" ry="22.367"/>
			
				<ellipse transform="matrix(0.8398 -0.5429 0.5429 0.8398 -19.9271 194.7418)" style="fill:#C2CEF2;" cx="320.045" cy="131.139" rx="17.484" ry="17.484"/>
			<path style="fill:#FFFFFF;" d="M330.827,124.596c-0.706,2.986-3.699,4.833-6.685,4.127c-2.986-0.706-4.833-3.699-4.127-6.685
				c0.706-2.986,3.699-4.833,6.685-4.127C329.685,118.617,331.533,121.61,330.827,124.596z"/>
		</g>
	</g>
	<g>
		<g>
			<path style="fill:#E2E6FF;" d="M228.547,130.032c1.004-3.345,3.115-5.553,6.332-6.626l1.544-0.501
				c1.449-0.422,2.488-0.816,3.117-1.182c0.627-0.366,1.056-0.925,1.282-1.68c0.571-1.901-0.735-3.331-3.915-4.285
				c-1.475-0.443-3.059-0.704-4.752-0.783c-1.691-0.079-3.351,0.031-4.977,0.328l2.274-7.574c3.43-0.472,7.014-0.146,10.752,0.976
				c4.033,1.211,6.977,3.015,8.831,5.412c1.854,2.398,2.333,5.088,1.437,8.072c-0.502,1.673-1.285,2.912-2.349,3.718
				c-1.065,0.806-2.691,1.578-4.878,2.315c-1.479,0.522-2.57,0.936-3.27,1.244c-0.7,0.309-1.278,0.715-1.734,1.222
				c-0.456,0.507-0.812,1.187-1.068,2.038l-0.281,0.935l-8.657-2.599L228.547,130.032z M226.019,142.115
				c-0.609-1.13-0.721-2.334-0.337-3.613c0.394-1.311,1.153-2.263,2.279-2.855c1.123-0.592,2.343-0.691,3.654-0.297
				c1.279,0.384,2.239,1.146,2.88,2.285c0.64,1.14,0.769,2.349,0.385,3.628c-0.384,1.279-1.158,2.218-2.32,2.816
				c-1.163,0.598-2.384,0.705-3.663,0.321C227.587,144.006,226.626,143.244,226.019,142.115z"/>
		</g>
		<g>
			<path style="fill:#E2E6FF;" d="M103.399,169.05c1.869,2.95,2.155,5.992,0.858,9.124l-0.633,1.495
				c-0.631,1.372-1.014,2.415-1.149,3.129c-0.135,0.713,0.007,1.404,0.429,2.069c1.063,1.677,2.998,1.627,5.803-0.151
				c1.301-0.825,2.536-1.851,3.704-3.077c1.168-1.226,2.172-2.552,3.013-3.976l4.233,6.68c-1.891,2.9-4.485,5.395-7.782,7.484
				c-3.557,2.254-6.849,3.296-9.874,3.126c-3.026-0.17-5.373-1.571-7.04-4.202c-0.935-1.475-1.358-2.878-1.271-4.211
				c0.089-1.333,0.571-3.067,1.446-5.202c0.575-1.46,0.976-2.554,1.202-3.285c0.226-0.731,0.297-1.434,0.212-2.11
				c-0.084-0.677-0.365-1.391-0.84-2.142l-0.523-0.825l7.635-4.838L103.399,169.05z M95.926,159.225
				c1.253,0.28,2.236,0.985,2.951,2.113c0.733,1.156,0.955,2.354,0.664,3.592c-0.288,1.237-1.013,2.223-2.169,2.956
				c-1.128,0.715-2.332,0.941-3.613,0.679c-1.281-0.264-2.279-0.958-2.993-2.086c-0.715-1.128-0.917-2.328-0.608-3.597
				c0.31-1.27,1.029-2.263,2.157-2.978C93.47,159.17,94.675,158.943,95.926,159.225z"/>
		</g>
		<g>
			<path style="fill:#E2E6FF;" d="M440.04,210c0.713-2.376,2.213-3.945,4.498-4.707l1.097-0.356c1.03-0.3,1.768-0.58,2.214-0.839
				c0.446-0.26,0.75-0.657,0.911-1.193c0.406-1.351-0.522-2.366-2.782-3.045c-1.048-0.315-2.173-0.5-3.376-0.556
				c-1.201-0.056-2.381,0.022-3.536,0.233l1.615-5.381c2.437-0.335,4.983-0.104,7.639,0.694c2.865,0.86,4.957,2.142,6.273,3.845
				c1.317,1.703,1.657,3.615,1.021,5.734c-0.357,1.188-0.913,2.069-1.669,2.642c-0.757,0.573-1.912,1.121-3.465,1.645
				c-1.051,0.371-1.826,0.665-2.323,0.884c-0.497,0.219-0.908,0.508-1.231,0.868c-0.324,0.36-0.577,0.843-0.759,1.448l-0.199,0.665
				l-6.15-1.846L440.04,210z M438.245,218.584c-0.433-0.803-0.512-1.659-0.239-2.567c0.28-0.931,0.819-1.608,1.619-2.028
				c0.798-0.421,1.664-0.491,2.596-0.211c0.909,0.273,1.591,0.814,2.046,1.623c0.454,0.81,0.546,1.669,0.274,2.577
				c-0.273,0.908-0.823,1.575-1.648,2c-0.826,0.425-1.693,0.501-2.602,0.228C439.358,219.928,438.676,219.386,438.245,218.584z"/>
		</g>
	</g>
	<path style="fill:#E0E9FC;" d="M44.005,219.863c0,1.063-0.862,1.925-1.925,1.925c-1.063,0-1.925-0.862-1.925-1.925
		s0.862-1.925,1.925-1.925C43.143,217.938,44.005,218.8,44.005,219.863z"/>
</g>
<g id="TEXTS">
	
		<text transform="matrix(1 0 0 1 304.1809 233.0421)" style="fill:#EB725F; font-family:'Prompt-Bold'; font-size:51.9758px; letter-spacing:2;">404</text>
</g>
</svg>
