<?xml version="1.0" standalone="no"?>
<!DOCTYPE svg PUBLIC "-//W3C//DTD SVG 20010904//EN"
 "http://www.w3.org/TR/2001/REC-SVG-20010904/DTD/svg10.dtd">
<svg version="1.0" xmlns="http://www.w3.org/2000/svg"
 width="700.000000pt" height="700.000000pt" viewBox="0 0 700.000000 700.000000"
 preserveAspectRatio="xMidYMid meet">
<metadata>
Created by potrace 1.14, written by Peter Selinger 2001-2017
</metadata>
<g transform="translate(0.000000,700.000000) scale(0.100000,-0.100000)"
fill="#000000" stroke="none">
<path d="M1729 5446 c-2 -2 -56 -6 -119 -9 -311 -16 -528 -105 -660 -272 -92
-116 -144 -257 -175 -470 -4 -22 -8 -233 -10 -470 -5 -525 -7 -557 -41 -674
-38 -131 -122 -217 -255 -260 -57 -18 -164 -35 -231 -35 -25 0 -38 -5 -40 -15
-2 -9 -3 -110 -3 -226 0 -203 1 -210 20 -211 328 -17 461 -103 519 -332 23
-90 27 -171 28 -600 2 -436 7 -512 43 -670 36 -153 114 -294 213 -382 95 -86
267 -158 432 -184 43 -7 156 -16 233 -20 l57 -2 1 30 c3 113 0 326 -4 333 -3
5 -33 10 -67 11 -206 8 -359 92 -430 236 -64 129 -63 116 -74 991 -4 304 -5
317 -32 415 -45 158 -164 270 -354 333 -41 14 -90 28 -108 32 -27 5 -32 11
-32 35 0 24 5 29 38 35 175 33 350 143 415 263 30 55 63 173 71 252 3 30 6
269 7 531 1 425 3 486 20 570 52 253 187 368 457 386 56 4 92 10 93 17 3 52 1
357 -3 361 -3 3 -7 3 -9 1z"/>
<path d="M5063 5442 l-33 -3 0 -185 0 -184 53 0 c211 -2 374 -84 441 -224 72
-152 76 -191 80 -851 2 -253 6 -469 9 -480 3 -11 10 -42 17 -70 39 -172 203
-315 428 -371 67 -17 72 -20 72 -45 0 -23 -6 -29 -32 -34 -258 -57 -419 -190
-471 -393 -18 -70 -20 -116 -23 -537 -3 -455 -7 -597 -20 -665 -22 -119 -66
-218 -123 -277 -29 -31 -107 -83 -123 -83 -8 0 -18 -4 -24 -9 -19 -17 -141
-40 -236 -44 l-48 -2 0 -186 0 -186 48 3 c118 7 224 15 235 19 7 2 28 6 47 9
149 23 307 95 403 185 112 104 193 277 222 476 4 22 9 51 12 65 3 14 7 169 9
345 9 735 10 749 71 870 63 128 197 199 398 212 50 3 92 7 95 10 5 5 8 423 3
438 -2 6 -32 12 -66 13 -34 1 -71 4 -82 6 -11 2 -40 7 -65 11 -67 11 -180 67
-223 110 -20 21 -48 61 -62 89 -49 101 -57 156 -61 396 -2 124 -6 351 -8 505
-3 154 -7 296 -10 315 -30 184 -55 270 -109 372 -118 226 -343 347 -692 373
-49 4 -92 8 -95 9 -3 1 -20 0 -37 -2z"/>
<path d="M2309 3957 c-4 -5 -6 -394 -3 -408 4 -14 104 -16 1062 -17 581 0
1066 1 1078 3 20 4 21 10 20 212 l-1 208 -1077 2 c-593 1 -1079 1 -1079 0z"/>
<path d="M2305 2670 c-1 -116 2 -211 5 -211 3 -1 486 -2 1073 -3 707 -1 1071
2 1075 9 4 5 7 101 8 213 l0 202 -1080 0 -1081 0 0 -210z"/>
</g>
</svg>
